<?xml version="1.0" standalone="no"?><!DOCTYPE svg PUBLIC "-//W3C//DTD SVG 1.1//EN" "http://www.w3.org/Graphics/SVG/1.1/DTD/svg11.dtd"><svg t="1602588235409" class="icon" viewBox="0 0 1024 1024" version="1.1" xmlns="http://www.w3.org/2000/svg" p-id="3031" xmlns:xlink="http://www.w3.org/1999/xlink" width="200" height="200"><defs><style type="text/css"></style></defs><path d="M666.688 516.219c18.281 0 33.75-15.469 33.75-33.75s-15.469-33.75-33.75-33.75h-112.5l113.906-113.906c14.063-14.063 14.063-35.156 0-47.813-14.063-14.063-35.156-14.063-47.813 0l-105.469 105.469-105.469-105.469c-14.063-14.063-35.156-14.063-47.813 0-14.063 14.063-14.063 35.156 0 47.813l113.906 113.906h-112.5c-18.281 0-33.75 15.469-33.75 33.75s15.469 33.75 33.75 33.75h118.125v74.531h-118.125c-18.281 0-33.75 15.469-33.75 33.75s15.469 33.75 33.75 33.75h118.125v84.375c0 18.281 15.469 33.75 33.75 33.75s33.75-15.469 33.75-33.75v-84.375h118.125c18.281 0 33.75-15.469 33.75-33.75s-15.469-33.75-33.75-33.75h-118.125v-74.531h118.125z" p-id="3032"></path><path d="M849.5 213.875c-12.656-14.063-33.75-15.469-47.813-2.813s-15.469 33.75-2.813 47.813c98.438 109.688 123.75 268.594 64.688 403.594-42.188 94.219-116.719 165.938-210.938 202.5-94.219 36.563-196.875 35.156-289.688-5.625-192.656-82.969-279.844-307.969-196.875-499.219 40.781-92.813 115.313-164.531 209.531-201.094 94.219-37.969 198.281-35.156 291.094 5.625 16.875 7.031 37.969 0 45-18.281 7.031-16.875 0-37.969-18.281-45-109.688-47.813-232.031-50.625-343.125-7.031-111.094 43.594-198.281 129.375-246.094 239.063-98.438 226.406 4.219 490.781 230.625 589.219 57.656 25.313 118.125 37.969 178.594 37.969 54.844 0 111.094-9.844 163.125-30.938 111.094-43.594 199.688-127.969 247.5-237.656 70.313-160.313 40.781-347.344-74.531-478.125z"  p-id="3033"></path></svg>