<?xml version="1.0" standalone="no"?><!DOCTYPE svg PUBLIC "-//W3C//DTD SVG 1.1//EN" "http://www.w3.org/Graphics/SVG/1.1/DTD/svg11.dtd"><svg t="1602588277875" class="icon" viewBox="0 0 1024 1024" version="1.1" xmlns="http://www.w3.org/2000/svg" p-id="4405" xmlns:xlink="http://www.w3.org/1999/xlink" width="200" height="200"><defs><style type="text/css"></style></defs><path d="M274.908 566.724l196.444-205.528 189.892 198.688c1.456 2.26 2.416 4.828 4.36 6.84 15.572 16.304 40.772 16.304 56.3 0l218.144-228.228a41.016 41.016 0 0 0 6.772-5.68c15.908-16.648 15.908-43.648 0-60.312-15.928-16.652-41.74-16.652-57.656 0-1.168 1.26-1.688 2.888-2.708 4.248l-191.584 200.484-193.888-202.884c-0.492-0.568-0.664-1.3-1.172-1.852-15.916-16.648-41.732-16.648-57.664 0-1.184 1.268-1.672 2.892-2.672 4.252l-220.868 231.112c-15.552 16.264-15.552 42.64 0 58.856 15.548 16.312 40.768 16.312 56.3 0.004zM964.8 834.248H94.024V153.944c0-19.784-15.588-35.808-34.832-35.808-19.248 0-34.836 16.024-34.836 35.808v716.128c0 19.78 15.588 35.788 34.836 35.788h905.612c19.232 0 34.84-16.008 34.84-35.788 0.004-19.776-15.604-35.824-34.844-35.824z" p-id="4406"></path></svg>