<?xml version="1.0" standalone="no"?><!DOCTYPE svg PUBLIC "-//W3C//DTD SVG 1.1//EN" "http://www.w3.org/Graphics/SVG/1.1/DTD/svg11.dtd"><svg t="1602767183897" class="icon" viewBox="0 0 1024 1024" version="1.1" xmlns="http://www.w3.org/2000/svg" p-id="8995" xmlns:xlink="http://www.w3.org/1999/xlink" width="200" height="200"><defs><style type="text/css"></style></defs><path d="M481.173 933.75L65.117 556.165l410.31-397.536 387.673 26.96V537.5L481.173 933.75zM124.95 555.189l354.319 321.554 342.9-355.76v-297.21L490.8 200.729l-365.85 354.46z" p-id="8996"></path><path d="M482.177 438.205l28.538 29.345-179.76 174.821-28.538-29.345z m199.33-5.353c-46.702 0-84.697-37.203-84.697-82.932 0-45.705 37.995-82.888 84.697-82.888 46.7 0 84.695 37.183 84.695 82.888 0 45.73-37.994 82.932-84.695 82.932z m0-124.888c-24.132 0-43.765 18.822-43.765 41.956 0 23.159 19.633 42 43.765 42 24.13 0 43.763-18.842 43.763-42 0-23.134-19.632-41.956-43.763-41.956z" p-id="8997"></path><path d="M785.793 431.391c-25.232 0-50.83-5.634-74.94-17.533-19.87-9.813-37.361-23.16-51.998-39.676l30.634-27.147c11.107 12.533 24.391 22.667 39.484 30.12 63.855 31.516 141.49 5.133 173.05-58.816 15.3-30.987 17.633-66.062 6.571-98.765-11.059-32.693-34.181-59.107-65.112-74.378-22.62-11.165-47.71-15.466-72.54-12.433l-4.959-40.632c32.763-4 65.83 1.657 95.618 16.36 40.743 20.116 71.202 54.907 85.767 97.965 14.562 43.052 11.493 89.22-8.643 130-29.636 60.052-90.148 94.934-152.932 94.935z m-213.73 92.381l28.532 29.344L420.83 727.918l-28.534-29.344z" p-id="8998"></path></svg>